<svg xmlns="http://www.w3.org/2000/svg" xmlns:xlink="http://www.w3.org/1999/xlink" width="500" zoomAndPan="magnify" viewBox="0 0 375 374.999991" height="500" preserveAspectRatio="xMidYMid meet" version="1.2"><defs><clipPath id="9961301b3a"><rect x="0" width="259" y="0" height="10"/></clipPath></defs><g id="d0dfa89716"><rect x="0" width="375" y="0" height="374.999991" style="fill:#ffffff;fill-opacity:1;stroke:none;"/><rect x="0" width="375" y="0" height="374.999991" style="fill:#ffffff;fill-opacity:1;stroke:none;"/><g style="fill:#292828;fill-opacity:1;"><g transform="translate(25.870974, 198.124485)"><path style="stroke:none" d="M 16.609375 -33.125 C 19.992188 -33.125 22.6875 -32.671875 24.6875 -31.765625 C 26.695312 -30.867188 28.195312 -29.65625 29.1875 -28.125 C 30.175781 -26.601562 30.867188 -24.953125 31.265625 -23.171875 C 31.660156 -21.390625 31.941406 -19.59375 32.109375 -17.78125 C 32.285156 -15.976562 32.554688 -14.3125 32.921875 -12.78125 C 33.285156 -11.257812 33.945312 -10.050781 34.90625 -9.15625 C 35.363281 -8.695312 35.859375 -8.328125 36.390625 -8.046875 C 36.929688 -7.765625 37.144531 -7.3125 37.03125 -6.6875 C 36.914062 -5.894531 36.234375 -5.203125 34.984375 -4.609375 C 33.742188 -4.023438 32.304688 -3.734375 30.671875 -3.734375 C 29.203125 -3.734375 27.847656 -4.015625 26.609375 -4.578125 C 25.367188 -5.140625 24.253906 -5.6875 23.265625 -6.21875 C 22.273438 -6.757812 21.351562 -7.03125 20.5 -7.03125 C 19.707031 -7.03125 18.890625 -6.757812 18.046875 -6.21875 C 17.203125 -5.6875 16.171875 -5.140625 14.953125 -4.578125 C 13.742188 -4.015625 12.207031 -3.734375 10.34375 -3.734375 C 7.96875 -3.734375 5.914062 -4.195312 4.1875 -5.125 C 2.46875 -6.0625 1.253906 -7.304688 0.546875 -8.859375 C -0.160156 -10.410156 -0.171875 -12.117188 0.515625 -13.984375 C 1.128906 -15.671875 2.238281 -16.878906 3.84375 -17.609375 C 5.457031 -18.347656 7.28125 -18.898438 9.3125 -19.265625 C 11.351562 -19.640625 13.273438 -20.109375 15.078125 -20.671875 C 17.003906 -21.296875 18.25 -22.226562 18.8125 -23.46875 C 19.375 -24.707031 19.484375 -25.945312 19.140625 -27.1875 C 18.804688 -28.4375 18.21875 -29.257812 17.375 -29.65625 C 16.519531 -30.050781 15.910156 -29.910156 15.546875 -29.234375 C 15.179688 -28.554688 14.910156 -27.707031 14.734375 -26.6875 C 14.566406 -25.675781 14.34375 -24.832031 14.0625 -24.15625 C 13.664062 -23.082031 12.890625 -22.332031 11.734375 -21.90625 C 10.578125 -21.476562 9.332031 -21.347656 8 -21.515625 C 6.675781 -21.691406 5.535156 -22.117188 4.578125 -22.796875 C 3.617188 -23.472656 3.109375 -24.375 3.046875 -25.5 C 2.992188 -26.632812 3.671875 -27.9375 5.078125 -29.40625 C 6.148438 -30.476562 7.644531 -31.363281 9.5625 -32.0625 C 11.488281 -32.769531 13.835938 -33.125 16.609375 -33.125 Z M 12.703125 -12.453125 C 12.878906 -11.265625 13.53125 -10.472656 14.65625 -10.078125 C 15.789062 -9.679688 16.863281 -9.570312 17.875 -9.75 C 18.332031 -9.851562 18.6875 -10.085938 18.9375 -10.453125 C 19.1875 -10.828125 19.34375 -11.128906 19.40625 -11.359375 C 19.6875 -12.878906 19.8125 -14.234375 19.78125 -15.421875 C 19.757812 -16.609375 19.660156 -17.566406 19.484375 -18.296875 C 19.429688 -18.691406 19.21875 -18.90625 18.84375 -18.9375 C 18.476562 -18.96875 18.015625 -18.703125 17.453125 -18.140625 C 16.828125 -17.515625 16.117188 -16.945312 15.328125 -16.4375 C 14.546875 -15.925781 13.882812 -15.359375 13.34375 -14.734375 C 12.8125 -14.117188 12.597656 -13.359375 12.703125 -12.453125 Z M 12.703125 -12.453125 "/></g></g><g style="fill:#292828;fill-opacity:1;"><g transform="translate(62.303375, 198.124485)"><path style="stroke:none" d="M 24.828125 -33.125 C 27.023438 -33.125 28.859375 -32.613281 30.328125 -31.59375 C 31.796875 -30.582031 32.984375 -29.257812 33.890625 -27.625 C 34.796875 -25.988281 35.515625 -24.222656 36.046875 -22.328125 C 36.585938 -20.429688 37.039062 -18.578125 37.40625 -16.765625 C 37.78125 -14.960938 38.148438 -13.367188 38.515625 -11.984375 C 38.878906 -10.597656 39.375 -9.625 40 -9.0625 C 40.445312 -8.664062 40.925781 -8.328125 41.4375 -8.046875 C 41.945312 -7.765625 42.144531 -7.3125 42.03125 -6.6875 C 41.914062 -5.84375 41.429688 -5.207031 40.578125 -4.78125 C 39.734375 -4.363281 38.71875 -4.082031 37.53125 -3.9375 C 36.351562 -3.800781 35.195312 -3.734375 34.0625 -3.734375 C 32.988281 -3.734375 31.703125 -3.941406 30.203125 -4.359375 C 28.710938 -4.785156 27.414062 -5.59375 26.3125 -6.78125 C 25.207031 -7.96875 24.65625 -9.71875 24.65625 -12.03125 L 24.65625 -23.71875 C 24.65625 -25.8125 24.34375 -27.195312 23.71875 -27.875 C 23.101562 -28.550781 22.359375 -28.660156 21.484375 -28.203125 C 20.609375 -27.753906 19.757812 -26.894531 18.9375 -25.625 C 18.113281 -24.351562 17.460938 -22.800781 16.984375 -20.96875 C 16.503906 -19.132812 16.378906 -17.171875 16.609375 -15.078125 C 16.722656 -13.554688 16.929688 -12.242188 17.234375 -11.140625 C 17.546875 -10.035156 17.929688 -9.257812 18.390625 -8.8125 C 18.785156 -8.414062 19.179688 -8.085938 19.578125 -7.828125 C 19.972656 -7.578125 20.113281 -7.195312 20 -6.6875 C 19.882812 -5.84375 19.21875 -5.207031 18 -4.78125 C 16.789062 -4.363281 15.410156 -4.082031 13.859375 -3.9375 C 12.304688 -3.800781 10.960938 -3.734375 9.828125 -3.734375 C 8.753906 -3.734375 7.453125 -3.800781 5.921875 -3.9375 C 4.398438 -4.082031 3.0625 -4.363281 1.90625 -4.78125 C 0.75 -5.207031 0.113281 -5.84375 0 -6.6875 C -0.0507812 -7.257812 0.0859375 -7.6875 0.421875 -7.96875 C 0.765625 -8.25 1.132812 -8.585938 1.53125 -8.984375 C 2.144531 -9.546875 2.578125 -10.570312 2.828125 -12.0625 C 3.085938 -13.5625 3.242188 -15.242188 3.296875 -17.109375 C 3.359375 -18.972656 3.390625 -20.695312 3.390625 -22.28125 C 3.390625 -25.050781 3.359375 -27.476562 3.296875 -29.5625 C 3.242188 -31.65625 2.765625 -33.269531 1.859375 -34.40625 C 1.460938 -35.019531 1.039062 -35.523438 0.59375 -35.921875 C 0.144531 -36.316406 -0.0507812 -36.851562 0 -37.53125 C 0.113281 -38.382812 0.609375 -39.148438 1.484375 -39.828125 C 2.359375 -40.503906 3.375 -41.125 4.53125 -41.6875 C 5.6875 -42.25 6.742188 -42.785156 7.703125 -43.296875 C 8.441406 -43.691406 9.414062 -44.171875 10.625 -44.734375 C 11.84375 -45.304688 13.03125 -45.742188 14.1875 -46.046875 C 15.351562 -46.359375 16.273438 -46.34375 16.953125 -46 C 17.628906 -45.664062 17.796875 -44.820312 17.453125 -43.46875 C 17.398438 -43.070312 17.285156 -41.984375 17.109375 -40.203125 C 16.941406 -38.421875 16.773438 -36.257812 16.609375 -33.71875 C 16.441406 -31.175781 16.328125 -28.550781 16.265625 -25.84375 C 17.117188 -28.332031 18.421875 -30.164062 20.171875 -31.34375 C 21.921875 -32.53125 23.472656 -33.125 24.828125 -33.125 Z M 24.828125 -33.125 "/></g></g><g style="fill:#292828;fill-opacity:1;"><g transform="translate(104.920803, 198.124485)"><path style="stroke:none" d="M 16.609375 -33.125 C 19.992188 -33.125 22.6875 -32.671875 24.6875 -31.765625 C 26.695312 -30.867188 28.195312 -29.65625 29.1875 -28.125 C 30.175781 -26.601562 30.867188 -24.953125 31.265625 -23.171875 C 31.660156 -21.390625 31.941406 -19.59375 32.109375 -17.78125 C 32.285156 -15.976562 32.554688 -14.3125 32.921875 -12.78125 C 33.285156 -11.257812 33.945312 -10.050781 34.90625 -9.15625 C 35.363281 -8.695312 35.859375 -8.328125 36.390625 -8.046875 C 36.929688 -7.765625 37.144531 -7.3125 37.03125 -6.6875 C 36.914062 -5.894531 36.234375 -5.203125 34.984375 -4.609375 C 33.742188 -4.023438 32.304688 -3.734375 30.671875 -3.734375 C 29.203125 -3.734375 27.847656 -4.015625 26.609375 -4.578125 C 25.367188 -5.140625 24.253906 -5.6875 23.265625 -6.21875 C 22.273438 -6.757812 21.351562 -7.03125 20.5 -7.03125 C 19.707031 -7.03125 18.890625 -6.757812 18.046875 -6.21875 C 17.203125 -5.6875 16.171875 -5.140625 14.953125 -4.578125 C 13.742188 -4.015625 12.207031 -3.734375 10.34375 -3.734375 C 7.96875 -3.734375 5.914062 -4.195312 4.1875 -5.125 C 2.46875 -6.0625 1.253906 -7.304688 0.546875 -8.859375 C -0.160156 -10.410156 -0.171875 -12.117188 0.515625 -13.984375 C 1.128906 -15.671875 2.238281 -16.878906 3.84375 -17.609375 C 5.457031 -18.347656 7.28125 -18.898438 9.3125 -19.265625 C 11.351562 -19.640625 13.273438 -20.109375 15.078125 -20.671875 C 17.003906 -21.296875 18.25 -22.226562 18.8125 -23.46875 C 19.375 -24.707031 19.484375 -25.945312 19.140625 -27.1875 C 18.804688 -28.4375 18.21875 -29.257812 17.375 -29.65625 C 16.519531 -30.050781 15.910156 -29.910156 15.546875 -29.234375 C 15.179688 -28.554688 14.910156 -27.707031 14.734375 -26.6875 C 14.566406 -25.675781 14.34375 -24.832031 14.0625 -24.15625 C 13.664062 -23.082031 12.890625 -22.332031 11.734375 -21.90625 C 10.578125 -21.476562 9.332031 -21.347656 8 -21.515625 C 6.675781 -21.691406 5.535156 -22.117188 4.578125 -22.796875 C 3.617188 -23.472656 3.109375 -24.375 3.046875 -25.5 C 2.992188 -26.632812 3.671875 -27.9375 5.078125 -29.40625 C 6.148438 -30.476562 7.644531 -31.363281 9.5625 -32.0625 C 11.488281 -32.769531 13.835938 -33.125 16.609375 -33.125 Z M 12.703125 -12.453125 C 12.878906 -11.265625 13.53125 -10.472656 14.65625 -10.078125 C 15.789062 -9.679688 16.863281 -9.570312 17.875 -9.75 C 18.332031 -9.851562 18.6875 -10.085938 18.9375 -10.453125 C 19.1875 -10.828125 19.34375 -11.128906 19.40625 -11.359375 C 19.6875 -12.878906 19.8125 -14.234375 19.78125 -15.421875 C 19.757812 -16.609375 19.660156 -17.566406 19.484375 -18.296875 C 19.429688 -18.691406 19.21875 -18.90625 18.84375 -18.9375 C 18.476562 -18.96875 18.015625 -18.703125 17.453125 -18.140625 C 16.828125 -17.515625 16.117188 -16.945312 15.328125 -16.4375 C 14.546875 -15.925781 13.882812 -15.359375 13.34375 -14.734375 C 12.8125 -14.117188 12.597656 -13.359375 12.703125 -12.453125 Z M 12.703125 -12.453125 "/></g></g><g style="fill:#292828;fill-opacity:1;"><g transform="translate(141.353204, 198.124485)"><path style="stroke:none" d="M 42.875 -33.125 C 45.300781 -33.125 47.148438 -32.503906 48.421875 -31.265625 C 49.691406 -30.023438 50.640625 -28.414062 51.265625 -26.4375 C 51.890625 -24.457031 52.394531 -22.351562 52.78125 -20.125 C 53.175781 -17.894531 53.644531 -15.773438 54.1875 -13.765625 C 54.726562 -11.765625 55.5625 -10.113281 56.6875 -8.8125 C 57.03125 -8.414062 57.410156 -8.085938 57.828125 -7.828125 C 58.253906 -7.578125 58.410156 -7.195312 58.296875 -6.6875 C 58.179688 -5.84375 57.644531 -5.207031 56.6875 -4.78125 C 55.726562 -4.363281 54.613281 -4.082031 53.34375 -3.9375 C 52.070312 -3.800781 50.867188 -3.734375 49.734375 -3.734375 C 48.660156 -3.734375 47.347656 -3.941406 45.796875 -4.359375 C 44.242188 -4.785156 42.875 -5.59375 41.6875 -6.78125 C 40.5 -7.96875 39.90625 -9.71875 39.90625 -12.03125 L 39.90625 -23.71875 C 39.90625 -25.8125 39.648438 -27 39.140625 -27.28125 C 38.640625 -27.5625 38.0625 -27.222656 37.40625 -26.265625 C 36.757812 -25.304688 36.179688 -23.976562 35.671875 -22.28125 C 35.160156 -20.59375 34.90625 -18.816406 34.90625 -16.953125 L 34.90625 -12.03125 C 34.90625 -10.84375 35.21875 -9.992188 35.84375 -9.484375 C 36.46875 -8.984375 37.085938 -8.578125 37.703125 -8.265625 C 38.328125 -7.953125 38.582031 -7.425781 38.46875 -6.6875 C 38.351562 -5.84375 37.816406 -5.207031 36.859375 -4.78125 C 35.898438 -4.363281 34.769531 -4.082031 33.46875 -3.9375 C 32.164062 -3.800781 30.953125 -3.734375 29.828125 -3.734375 C 28.753906 -3.734375 27.582031 -3.941406 26.3125 -4.359375 C 25.039062 -4.785156 23.953125 -5.59375 23.046875 -6.78125 C 22.140625 -7.96875 21.6875 -9.71875 21.6875 -12.03125 L 21.6875 -23.71875 C 21.6875 -25.53125 21.488281 -26.660156 21.09375 -27.109375 C 20.695312 -27.566406 20.21875 -27.5 19.65625 -26.90625 C 19.09375 -26.3125 18.539062 -25.421875 18 -24.234375 C 17.46875 -23.046875 17.03125 -21.703125 16.6875 -20.203125 C 16.351562 -18.710938 16.210938 -17.289062 16.265625 -15.9375 C 16.378906 -14.46875 16.59375 -13.082031 16.90625 -11.78125 C 17.21875 -10.476562 17.710938 -9.488281 18.390625 -8.8125 C 18.785156 -8.414062 19.179688 -8.085938 19.578125 -7.828125 C 19.972656 -7.578125 20.113281 -7.195312 20 -6.6875 C 19.882812 -5.84375 19.21875 -5.207031 18 -4.78125 C 16.789062 -4.363281 15.410156 -4.082031 13.859375 -3.9375 C 12.304688 -3.800781 10.960938 -3.734375 9.828125 -3.734375 C 8.753906 -3.734375 7.453125 -3.800781 5.921875 -3.9375 C 4.398438 -4.082031 3.0625 -4.363281 1.90625 -4.78125 C 0.75 -5.207031 0.113281 -5.84375 0 -6.6875 C -0.0507812 -7.257812 0.0859375 -7.6875 0.421875 -7.96875 C 0.765625 -8.25 1.132812 -8.585938 1.53125 -8.984375 C 1.976562 -9.378906 2.328125 -10.125 2.578125 -11.21875 C 2.835938 -12.320312 2.992188 -13.550781 3.046875 -14.90625 C 3.109375 -16.269531 3.039062 -17.539062 2.84375 -18.71875 C 2.644531 -19.90625 2.316406 -20.785156 1.859375 -21.359375 C 1.460938 -21.921875 1.039062 -22.410156 0.59375 -22.828125 C 0.144531 -23.253906 -0.0507812 -23.78125 0 -24.40625 C 0.113281 -25.25 0.609375 -26.023438 1.484375 -26.734375 C 2.359375 -27.441406 3.375 -28.078125 4.53125 -28.640625 C 5.6875 -29.203125 6.742188 -29.738281 7.703125 -30.25 C 8.441406 -30.59375 9.414062 -31.046875 10.625 -31.609375 C 11.84375 -32.171875 13.03125 -32.609375 14.1875 -32.921875 C 15.351562 -33.234375 16.273438 -33.234375 16.953125 -32.921875 C 17.628906 -32.609375 17.796875 -31.773438 17.453125 -30.421875 L 16.859375 -26.6875 C 17.597656 -28.5 18.613281 -30.023438 19.90625 -31.265625 C 21.207031 -32.503906 22.789062 -33.125 24.65625 -33.125 C 27.195312 -33.125 29.300781 -32.25 30.96875 -30.5 C 32.632812 -28.75 33.75 -26.546875 34.3125 -23.890625 L 34.3125 -24.0625 C 34.820312 -26.4375 35.8125 -28.539062 37.28125 -30.375 C 38.75 -32.207031 40.613281 -33.125 42.875 -33.125 Z M 42.875 -33.125 "/></g></g><g style="fill:#292828;fill-opacity:1;"><g transform="translate(200.407575, 198.124485)"><path style="stroke:none" d="M 28.984375 -17.03125 C 29.597656 -17.769531 30.171875 -17.984375 30.703125 -17.671875 C 31.242188 -17.359375 31.460938 -16.832031 31.359375 -16.09375 L 31.1875 -15.25 C 30.675781 -13.050781 29.6875 -11.085938 28.21875 -9.359375 C 26.75 -7.640625 24.941406 -6.269531 22.796875 -5.25 C 20.648438 -4.238281 18.304688 -3.734375 15.765625 -3.734375 C 12.878906 -3.734375 10.25 -4.394531 7.875 -5.71875 C 5.507812 -7.039062 3.601562 -8.816406 2.15625 -11.046875 C 0.71875 -13.285156 0 -15.734375 0 -18.390625 C 0 -21.097656 0.71875 -23.566406 2.15625 -25.796875 C 3.601562 -28.035156 5.507812 -29.816406 7.875 -31.140625 C 10.25 -32.460938 12.878906 -33.125 15.765625 -33.125 C 18.585938 -33.125 21.171875 -32.585938 23.515625 -31.515625 C 25.859375 -30.441406 27.539062 -28.921875 28.5625 -26.953125 C 29.175781 -25.703125 29.253906 -24.382812 28.796875 -23 C 28.347656 -21.613281 27.53125 -20.328125 26.34375 -19.140625 C 25.164062 -17.960938 23.785156 -17.003906 22.203125 -16.265625 C 20.617188 -15.535156 19.035156 -15.171875 17.453125 -15.171875 C 16.722656 -15.171875 16.003906 -15.222656 15.296875 -15.328125 C 14.585938 -15.441406 13.953125 -15.613281 13.390625 -15.84375 C 14.234375 -13.976562 15.546875 -12.789062 17.328125 -12.28125 C 19.109375 -11.78125 21.039062 -11.9375 23.125 -12.75 C 25.21875 -13.570312 27.171875 -15 28.984375 -17.03125 Z M 15.765625 -29.828125 C 15.023438 -29.828125 14.414062 -29.300781 13.9375 -28.25 C 13.457031 -27.207031 13.101562 -25.96875 12.875 -24.53125 C 12.65625 -23.09375 12.546875 -21.75 12.546875 -20.5 C 12.546875 -19.65625 12.628906 -18.835938 12.796875 -18.046875 C 12.847656 -18.160156 13.015625 -18.273438 13.296875 -18.390625 C 14.597656 -19.179688 15.546875 -20.210938 16.140625 -21.484375 C 16.734375 -22.753906 17.085938 -24.023438 17.203125 -25.296875 C 17.316406 -26.566406 17.226562 -27.640625 16.9375 -28.515625 C 16.65625 -29.390625 16.265625 -29.828125 15.765625 -29.828125 Z M 15.765625 -29.828125 "/></g></g><g style="fill:#292828;fill-opacity:1;"><g transform="translate(232.518917, 198.124485)"><path style="stroke:none" d="M 35.328125 -8.984375 C 35.722656 -8.585938 36.085938 -8.25 36.421875 -7.96875 C 36.765625 -7.6875 36.910156 -7.257812 36.859375 -6.6875 C 36.691406 -5.445312 36 -4.644531 34.78125 -4.28125 C 33.570312 -3.914062 32.316406 -3.734375 31.015625 -3.734375 C 30.617188 -3.734375 29.828125 -3.816406 28.640625 -3.984375 C 27.453125 -4.148438 26.222656 -4.300781 24.953125 -4.4375 C 23.679688 -4.582031 22.679688 -4.65625 21.953125 -4.65625 C 21.265625 -4.65625 20.550781 -4.582031 19.8125 -4.4375 C 19.082031 -4.300781 18.179688 -4.148438 17.109375 -3.984375 C 16.035156 -3.816406 14.566406 -3.734375 12.703125 -3.734375 C 10.617188 -3.734375 8.601562 -4.394531 6.65625 -5.71875 C 4.707031 -7.039062 3.109375 -8.816406 1.859375 -11.046875 C 0.617188 -13.285156 0 -15.734375 0 -18.390625 C 0 -21.097656 0.5625 -23.566406 1.6875 -25.796875 C 2.820312 -28.035156 4.363281 -29.816406 6.3125 -31.140625 C 8.257812 -32.460938 10.390625 -33.125 12.703125 -33.125 C 14.171875 -33.125 15.554688 -32.851562 16.859375 -32.3125 C 18.160156 -31.78125 19.347656 -31.035156 20.421875 -30.078125 C 20.367188 -30.984375 20.253906 -31.773438 20.078125 -32.453125 C 19.910156 -33.128906 19.570312 -33.78125 19.0625 -34.40625 C 18.664062 -35.019531 18.238281 -35.523438 17.78125 -35.921875 C 17.332031 -36.316406 17.140625 -36.851562 17.203125 -37.53125 C 17.316406 -38.382812 17.835938 -39.148438 18.765625 -39.828125 C 19.703125 -40.503906 20.773438 -41.125 21.984375 -41.6875 C 23.203125 -42.25 24.289062 -42.785156 25.25 -43.296875 C 25.988281 -43.691406 26.9375 -44.171875 28.09375 -44.734375 C 29.25 -45.304688 30.375 -45.742188 31.46875 -46.046875 C 32.570312 -46.359375 33.445312 -46.34375 34.09375 -46 C 34.75 -45.664062 34.9375 -44.820312 34.65625 -43.46875 C 34.601562 -42.957031 34.476562 -41.429688 34.28125 -38.890625 C 34.082031 -36.347656 33.867188 -33.410156 33.640625 -30.078125 C 33.585938 -29.003906 33.546875 -27.800781 33.515625 -26.46875 C 33.484375 -25.144531 33.46875 -23.75 33.46875 -22.28125 C 33.46875 -20.695312 33.492188 -18.972656 33.546875 -17.109375 C 33.609375 -15.242188 33.78125 -13.5625 34.0625 -12.0625 C 34.34375 -10.570312 34.765625 -9.546875 35.328125 -8.984375 Z M 17.203125 -7.703125 C 18.160156 -7.253906 18.960938 -7.820312 19.609375 -9.40625 C 20.265625 -10.988281 20.59375 -14.09375 20.59375 -18.71875 C 20.59375 -21.601562 20.476562 -23.722656 20.25 -25.078125 C 20.019531 -26.429688 19.507812 -27.445312 18.71875 -28.125 C 17.707031 -29.09375 16.75 -29.363281 15.84375 -28.9375 C 14.9375 -28.507812 14.171875 -27.628906 13.546875 -26.296875 C 12.929688 -24.972656 12.507812 -23.40625 12.28125 -21.59375 C 12.0625 -19.789062 12.050781 -17.957031 12.25 -16.09375 C 12.445312 -14.226562 12.953125 -12.546875 13.765625 -11.046875 C 14.585938 -9.554688 15.734375 -8.441406 17.203125 -7.703125 Z M 17.203125 -7.703125 "/></g></g><g style="fill:#292828;fill-opacity:1;"><g transform="translate(269.798569, 198.124485)"><path style="stroke:none" d="M 17.453125 -43.46875 C 17.398438 -43.070312 17.285156 -42.054688 17.109375 -40.421875 C 16.941406 -38.785156 16.773438 -36.765625 16.609375 -34.359375 C 16.441406 -31.960938 16.328125 -29.4375 16.265625 -26.78125 C 16.210938 -24.125 16.226562 -21.550781 16.3125 -19.0625 C 16.394531 -16.582031 16.601562 -14.421875 16.9375 -12.578125 C 17.28125 -10.742188 17.765625 -9.488281 18.390625 -8.8125 C 18.785156 -8.414062 19.179688 -8.085938 19.578125 -7.828125 C 19.972656 -7.578125 20.113281 -7.195312 20 -6.6875 C 19.882812 -5.84375 19.21875 -5.207031 18 -4.78125 C 16.789062 -4.363281 15.410156 -4.082031 13.859375 -3.9375 C 12.304688 -3.800781 10.960938 -3.734375 9.828125 -3.734375 C 8.753906 -3.734375 7.453125 -3.800781 5.921875 -3.9375 C 4.398438 -4.082031 3.0625 -4.363281 1.90625 -4.78125 C 0.75 -5.207031 0.113281 -5.84375 0 -6.6875 C -0.0507812 -7.257812 0.0859375 -7.6875 0.421875 -7.96875 C 0.765625 -8.25 1.132812 -8.585938 1.53125 -8.984375 C 2.144531 -9.546875 2.578125 -10.570312 2.828125 -12.0625 C 3.085938 -13.5625 3.242188 -15.242188 3.296875 -17.109375 C 3.359375 -18.972656 3.390625 -20.695312 3.390625 -22.28125 C 3.390625 -25.050781 3.359375 -27.476562 3.296875 -29.5625 C 3.242188 -31.65625 2.765625 -33.269531 1.859375 -34.40625 C 1.460938 -35.019531 1.039062 -35.523438 0.59375 -35.921875 C 0.144531 -36.316406 -0.0507812 -36.851562 0 -37.53125 C 0.113281 -38.382812 0.609375 -39.148438 1.484375 -39.828125 C 2.359375 -40.503906 3.375 -41.125 4.53125 -41.6875 C 5.6875 -42.25 6.742188 -42.785156 7.703125 -43.296875 C 8.441406 -43.691406 9.414062 -44.171875 10.625 -44.734375 C 11.84375 -45.304688 13.03125 -45.742188 14.1875 -46.046875 C 15.351562 -46.359375 16.273438 -46.34375 16.953125 -46 C 17.628906 -45.664062 17.796875 -44.820312 17.453125 -43.46875 Z M 17.453125 -43.46875 "/></g></g><g style="fill:#292828;fill-opacity:1;"><g transform="translate(290.132934, 198.124485)"><path style="stroke:none" d="M 15.671875 -46.265625 C 19.679688 -46.265625 22.972656 -45.539062 25.546875 -44.09375 C 28.117188 -42.65625 30.097656 -40.75 31.484375 -38.375 C 32.867188 -36.007812 33.753906 -33.457031 34.140625 -30.71875 C 34.535156 -27.976562 34.566406 -25.28125 34.234375 -22.625 C 33.785156 -18.945312 32.753906 -15.679688 31.140625 -12.828125 C 29.523438 -9.984375 27.40625 -7.753906 24.78125 -6.140625 C 22.15625 -4.535156 19.09375 -3.734375 15.59375 -3.734375 C 12.3125 -3.734375 9.625 -4.238281 7.53125 -5.25 C 5.445312 -6.269531 3.867188 -7.484375 2.796875 -8.890625 C 1.722656 -10.304688 1.015625 -11.550781 0.671875 -12.625 C 0.222656 -14.207031 0.351562 -15.503906 1.0625 -16.515625 C 1.769531 -17.535156 2.769531 -18.269531 4.0625 -18.71875 C 5.363281 -19.175781 6.691406 -19.347656 8.046875 -19.234375 C 9.398438 -19.117188 10.554688 -18.722656 11.515625 -18.046875 C 12.484375 -17.367188 12.9375 -16.378906 12.875 -15.078125 C 12.875 -14.234375 12.972656 -13.1875 13.171875 -11.9375 C 13.367188 -10.695312 13.734375 -9.625 14.265625 -8.71875 C 14.804688 -7.820312 15.585938 -7.457031 16.609375 -7.625 C 18.078125 -7.90625 19.40625 -9.457031 20.59375 -12.28125 C 21.78125 -15.101562 22.484375 -19.484375 22.703125 -25.421875 C 22.140625 -23.890625 21.125 -22.628906 19.65625 -21.640625 C 18.1875 -20.660156 16.632812 -20.171875 15 -20.171875 C 12.226562 -20.171875 9.710938 -20.757812 7.453125 -21.9375 C 5.191406 -23.125 3.382812 -24.707031 2.03125 -26.6875 C 0.675781 -28.664062 0 -30.84375 0 -33.21875 C 0 -35.644531 0.734375 -37.832031 2.203125 -39.78125 C 3.671875 -41.726562 5.59375 -43.296875 7.96875 -44.484375 C 10.34375 -45.671875 12.910156 -46.265625 15.671875 -46.265625 Z M 15.84375 -24.0625 C 17.257812 -24.0625 18.457031 -24.953125 19.4375 -26.734375 C 20.425781 -28.515625 20.921875 -30.675781 20.921875 -33.21875 C 20.921875 -35.644531 20.457031 -37.734375 19.53125 -39.484375 C 18.601562 -41.234375 17.457031 -42.164062 16.09375 -42.28125 L 15.84375 -42.28125 C 14.4375 -42.28125 13.238281 -41.390625 12.25 -39.609375 C 11.257812 -37.828125 10.765625 -35.695312 10.765625 -33.21875 C 10.765625 -30.675781 11.257812 -28.515625 12.25 -26.734375 C 13.238281 -24.953125 14.4375 -24.0625 15.84375 -24.0625 Z M 15.84375 -24.0625 "/></g></g><g style="fill:#292828;fill-opacity:1;"><g transform="translate(325.294446, 198.124485)"><path style="stroke:none" d="M 8.8125 -33.125 C 7.0625 -33.125 5.578125 -33.734375 4.359375 -34.953125 C 3.148438 -36.171875 2.546875 -37.65625 2.546875 -39.40625 C 2.546875 -41.15625 3.148438 -42.632812 4.359375 -43.84375 C 5.578125 -45.0625 7.0625 -45.671875 8.8125 -45.671875 C 10.5625 -45.671875 12.039062 -45.0625 13.25 -43.84375 C 14.46875 -42.632812 15.078125 -41.15625 15.078125 -39.40625 C 15.078125 -37.65625 14.46875 -36.171875 13.25 -34.953125 C 12.039062 -33.734375 10.5625 -33.125 8.8125 -33.125 Z M 17.453125 -30.421875 C 17.335938 -29.910156 17.179688 -28.976562 16.984375 -27.625 C 16.785156 -26.269531 16.601562 -24.703125 16.4375 -22.921875 C 16.269531 -21.140625 16.195312 -19.316406 16.21875 -17.453125 C 16.25 -15.585938 16.421875 -13.878906 16.734375 -12.328125 C 17.046875 -10.773438 17.597656 -9.601562 18.390625 -8.8125 C 18.785156 -8.414062 19.179688 -8.085938 19.578125 -7.828125 C 19.972656 -7.578125 20.113281 -7.195312 20 -6.6875 C 19.882812 -5.84375 19.21875 -5.207031 18 -4.78125 C 16.789062 -4.363281 15.410156 -4.082031 13.859375 -3.9375 C 12.304688 -3.800781 10.960938 -3.734375 9.828125 -3.734375 C 8.753906 -3.734375 7.453125 -3.800781 5.921875 -3.9375 C 4.398438 -4.082031 3.0625 -4.363281 1.90625 -4.78125 C 0.75 -5.207031 0.113281 -5.84375 0 -6.6875 C -0.0507812 -7.257812 0.0859375 -7.6875 0.421875 -7.96875 C 0.765625 -8.25 1.132812 -8.585938 1.53125 -8.984375 C 1.976562 -9.378906 2.328125 -10.125 2.578125 -11.21875 C 2.835938 -12.320312 2.992188 -13.550781 3.046875 -14.90625 C 3.109375 -16.269531 3.039062 -17.539062 2.84375 -18.71875 C 2.644531 -19.90625 2.316406 -20.785156 1.859375 -21.359375 C 1.460938 -21.921875 1.039062 -22.410156 0.59375 -22.828125 C 0.144531 -23.253906 -0.0507812 -23.78125 0 -24.40625 C 0.113281 -25.25 0.609375 -26.023438 1.484375 -26.734375 C 2.359375 -27.441406 3.375 -28.078125 4.53125 -28.640625 C 5.6875 -29.203125 6.742188 -29.738281 7.703125 -30.25 C 8.441406 -30.59375 9.414062 -31.046875 10.625 -31.609375 C 11.84375 -32.171875 13.03125 -32.609375 14.1875 -32.921875 C 15.351562 -33.234375 16.273438 -33.234375 16.953125 -32.921875 C 17.628906 -32.609375 17.796875 -31.773438 17.453125 -30.421875 Z M 17.453125 -30.421875 "/></g></g><g style="fill:#292828;fill-opacity:1;"><g transform="translate(345.713543, 198.124485)"><path style="stroke:none" d="M 6.359375 -16.4375 C 8.160156 -16.4375 9.664062 -15.8125 10.875 -14.5625 C 12.09375 -13.320312 12.703125 -11.828125 12.703125 -10.078125 C 12.703125 -8.328125 12.09375 -6.832031 10.875 -5.59375 C 9.664062 -4.351562 8.160156 -3.734375 6.359375 -3.734375 C 4.609375 -3.734375 3.109375 -4.351562 1.859375 -5.59375 C 0.617188 -6.832031 0 -8.328125 0 -10.078125 C 0 -11.828125 0.617188 -13.320312 1.859375 -14.5625 C 3.109375 -15.8125 4.609375 -16.4375 6.359375 -16.4375 Z M 6.359375 -16.4375 "/></g></g><g transform="matrix(1,0,0,1,96,204)"><g clip-path="url(#9961301b3a)"><g style="fill:#292929;fill-opacity:1;"><g transform="translate(1.353838, 7.723562)"><path style="stroke:none" d="M 1.546875 -2.09375 L 3.625 -2.09375 L 2.59375 -4.71875 Z M 5.09375 0 L 4.453125 0 L 3.84375 -1.546875 L 1.328125 -1.546875 L 0.71875 0 L 0.078125 0 L 2.59375 -6.09375 Z M 5.09375 0 "/></g></g><g style="fill:#292929;fill-opacity:1;"><g transform="translate(13.212007, 7.723562)"><path style="stroke:none" d="M 5.0625 -2.859375 C 5.0625 -2.441406 4.984375 -2.0625 4.828125 -1.71875 C 4.671875 -1.363281 4.460938 -1.0625 4.203125 -0.8125 C 3.941406 -0.550781 3.628906 -0.351562 3.265625 -0.21875 C 2.910156 -0.0703125 2.53125 0 2.125 0 L 0.625 0 L 0.625 -5.703125 L 2.125 -5.703125 C 2.53125 -5.703125 2.910156 -5.632812 3.265625 -5.5 C 3.628906 -5.351562 3.941406 -5.15625 4.203125 -4.90625 C 4.460938 -4.644531 4.671875 -4.34375 4.828125 -4 C 4.984375 -3.644531 5.0625 -3.265625 5.0625 -2.859375 Z M 4.484375 -2.859375 C 4.484375 -3.503906 4.253906 -4.046875 3.796875 -4.484375 C 3.347656 -4.910156 2.796875 -5.125 2.140625 -5.125 L 1.21875 -5.125 L 1.21875 -0.59375 L 2.140625 -0.59375 C 2.796875 -0.59375 3.347656 -0.800781 3.796875 -1.21875 C 4.253906 -1.65625 4.484375 -2.203125 4.484375 -2.859375 Z M 4.484375 -2.859375 "/></g></g><g style="fill:#292929;fill-opacity:1;"><g transform="translate(25.330341, 7.723562)"><path style="stroke:none" d="M 5.890625 0 L 5 -4.0625 L 3.296875 0.328125 L 1.5625 -4.0625 L 0.6875 0 L 0.078125 0 L 1.421875 -6.078125 L 3.296875 -1.203125 L 5.15625 -6.078125 L 6.484375 0 Z M 5.890625 0 "/></g></g><g style="fill:#292929;fill-opacity:1;"><g transform="translate(38.581625, 7.723562)"><path style="stroke:none" d="M 1.21875 0 L 0.625 0 L 0.625 -5.703125 L 1.21875 -5.703125 Z M 1.21875 0 "/></g></g><g style="fill:#292929;fill-opacity:1;"><g transform="translate(47.108074, 7.723562)"><path style="stroke:none" d="M 1.21875 -4.203125 L 1.21875 0 L 0.625 0 L 0.625 -6.0625 L 3.828125 -1.515625 L 3.828125 -5.703125 L 4.421875 -5.703125 L 4.421875 0.359375 Z M 1.21875 -4.203125 "/></g></g><g style="fill:#292929;fill-opacity:1;"><g transform="translate(58.840356, 7.723562)"><path style="stroke:none" d=""/></g></g><g style="fill:#292929;fill-opacity:1;"><g transform="translate(67.786418, 7.723562)"><path style="stroke:none" d="M 2.21875 -2.6875 C 1.050781 -2.957031 0.46875 -3.457031 0.46875 -4.1875 C 0.46875 -4.726562 0.65625 -5.128906 1.03125 -5.390625 C 1.40625 -5.660156 1.84375 -5.796875 2.34375 -5.796875 C 3.457031 -5.796875 4.117188 -5.378906 4.328125 -4.546875 L 3.6875 -4.546875 C 3.582031 -5.035156 3.132812 -5.28125 2.34375 -5.28125 C 1.800781 -5.28125 1.421875 -5.117188 1.203125 -4.796875 C 1.117188 -4.671875 1.078125 -4.519531 1.078125 -4.34375 C 1.078125 -3.988281 1.265625 -3.71875 1.640625 -3.53125 C 1.816406 -3.425781 2.195312 -3.300781 2.78125 -3.15625 C 3.363281 -3 3.785156 -2.832031 4.046875 -2.65625 C 4.410156 -2.394531 4.59375 -2.03125 4.59375 -1.5625 C 4.59375 -0.988281 4.367188 -0.554688 3.921875 -0.265625 C 3.535156 -0.015625 3.066406 0.109375 2.515625 0.109375 C 1.242188 0.109375 0.507812 -0.367188 0.3125 -1.328125 L 1 -1.328125 C 1.113281 -0.722656 1.617188 -0.421875 2.515625 -0.421875 C 3.148438 -0.421875 3.59375 -0.597656 3.84375 -0.953125 C 3.945312 -1.097656 4 -1.289062 4 -1.53125 C 4 -1.757812 3.90625 -1.953125 3.71875 -2.109375 C 3.457031 -2.316406 2.957031 -2.507812 2.21875 -2.6875 Z M 2.21875 -2.6875 "/></g></g><g style="fill:#292929;fill-opacity:1;"><g transform="translate(79.28372, 7.723562)"><path style="stroke:none" d="M 2.84375 -2.6875 L 2.84375 0 L 2.25 0 L 2.25 -2.6875 L 0.078125 -5.703125 L 0.84375 -5.703125 L 2.546875 -3.265625 L 4.25 -5.703125 L 5 -5.703125 Z M 2.84375 -2.6875 "/></g></g><g style="fill:#292929;fill-opacity:1;"><g transform="translate(91.041185, 7.723562)"><path style="stroke:none" d="M 2.21875 -2.6875 C 1.050781 -2.957031 0.46875 -3.457031 0.46875 -4.1875 C 0.46875 -4.726562 0.65625 -5.128906 1.03125 -5.390625 C 1.40625 -5.660156 1.84375 -5.796875 2.34375 -5.796875 C 3.457031 -5.796875 4.117188 -5.378906 4.328125 -4.546875 L 3.6875 -4.546875 C 3.582031 -5.035156 3.132812 -5.28125 2.34375 -5.28125 C 1.800781 -5.28125 1.421875 -5.117188 1.203125 -4.796875 C 1.117188 -4.671875 1.078125 -4.519531 1.078125 -4.34375 C 1.078125 -3.988281 1.265625 -3.71875 1.640625 -3.53125 C 1.816406 -3.425781 2.195312 -3.300781 2.78125 -3.15625 C 3.363281 -3 3.785156 -2.832031 4.046875 -2.65625 C 4.410156 -2.394531 4.59375 -2.03125 4.59375 -1.5625 C 4.59375 -0.988281 4.367188 -0.554688 3.921875 -0.265625 C 3.535156 -0.015625 3.066406 0.109375 2.515625 0.109375 C 1.242188 0.109375 0.507812 -0.367188 0.3125 -1.328125 L 1 -1.328125 C 1.113281 -0.722656 1.617188 -0.421875 2.515625 -0.421875 C 3.148438 -0.421875 3.59375 -0.597656 3.84375 -0.953125 C 3.945312 -1.097656 4 -1.289062 4 -1.53125 C 4 -1.757812 3.90625 -1.953125 3.71875 -2.109375 C 3.457031 -2.316406 2.957031 -2.507812 2.21875 -2.6875 Z M 2.21875 -2.6875 "/></g></g><g style="fill:#292929;fill-opacity:1;"><g transform="translate(102.538487, 7.723562)"><path style="stroke:none" d="M 0.171875 -5.171875 L 0.171875 -5.71875 L 3.53125 -5.71875 L 3.53125 -5.171875 L 2.140625 -5.171875 L 2.140625 -0.015625 L 1.546875 -0.015625 L 1.546875 -5.171875 Z M 0.171875 -5.171875 "/></g></g><g style="fill:#292929;fill-opacity:1;"><g transform="translate(112.911236, 7.723562)"><path style="stroke:none" d="M 4.015625 0 L 0.625 0 L 0.625 -5.703125 L 4.015625 -5.703125 L 4.015625 -5.15625 L 1.21875 -5.15625 L 1.21875 -3.125 L 3.9375 -3.125 L 3.9375 -2.578125 L 1.21875 -2.578125 L 1.21875 -0.546875 L 4.015625 -0.546875 Z M 4.015625 0 "/></g></g><g style="fill:#292929;fill-opacity:1;"><g transform="translate(124.24069, 7.723562)"><path style="stroke:none" d="M 5.890625 0 L 5 -4.0625 L 3.296875 0.328125 L 1.5625 -4.0625 L 0.6875 0 L 0.078125 0 L 1.421875 -6.078125 L 3.296875 -1.203125 L 5.15625 -6.078125 L 6.484375 0 Z M 5.890625 0 "/></g></g><g style="fill:#292929;fill-opacity:1;"><g transform="translate(137.491974, 7.723562)"><path style="stroke:none" d="M 4.015625 0 L 0.625 0 L 0.625 -5.703125 L 4.015625 -5.703125 L 4.015625 -5.15625 L 1.21875 -5.15625 L 1.21875 -3.125 L 3.9375 -3.125 L 3.9375 -2.578125 L 1.21875 -2.578125 L 1.21875 -0.546875 L 4.015625 -0.546875 Z M 4.015625 0 "/></g></g><g style="fill:#292929;fill-opacity:1;"><g transform="translate(148.821428, 7.723562)"><path style="stroke:none" d=""/></g></g><g style="fill:#292929;fill-opacity:1;"><g transform="translate(157.76749, 7.723562)"><path style="stroke:none" d="M 4.015625 0 L 0.625 0 L 0.625 -5.703125 L 4.015625 -5.703125 L 4.015625 -5.15625 L 1.21875 -5.15625 L 1.21875 -3.125 L 3.9375 -3.125 L 3.9375 -2.578125 L 1.21875 -2.578125 L 1.21875 -0.546875 L 4.015625 -0.546875 Z M 4.015625 0 "/></g></g><g style="fill:#292929;fill-opacity:1;"><g transform="translate(169.096945, 7.723562)"><path style="stroke:none" d="M 0.171875 -5.171875 L 0.171875 -5.71875 L 3.53125 -5.71875 L 3.53125 -5.171875 L 2.140625 -5.171875 L 2.140625 -0.015625 L 1.546875 -0.015625 L 1.546875 -5.171875 Z M 0.171875 -5.171875 "/></g></g><g style="fill:#292929;fill-opacity:1;"><g transform="translate(179.469694, 7.723562)"><path style="stroke:none" d=""/></g></g><g style="fill:#292929;fill-opacity:1;"><g transform="translate(188.415767, 7.723562)"><path style="stroke:none" d="M 1.21875 -2.8125 L 2.546875 -2.8125 C 2.867188 -2.8125 3.140625 -2.925781 3.359375 -3.15625 C 3.578125 -3.382812 3.6875 -3.664062 3.6875 -4 C 3.6875 -4.332031 3.582031 -4.609375 3.375 -4.828125 C 3.164062 -5.035156 2.890625 -5.140625 2.546875 -5.140625 L 1.21875 -5.140625 Z M 4.265625 -3.984375 C 4.265625 -3.484375 4.09375 -3.070312 3.75 -2.75 C 3.425781 -2.457031 3.046875 -2.296875 2.609375 -2.265625 L 4.359375 0 L 3.578125 0 L 1.90625 -2.25 L 1.21875 -2.25 L 1.21875 0 L 0.625 0 L 0.625 -5.703125 L 2.453125 -5.703125 C 2.960938 -5.703125 3.394531 -5.546875 3.75 -5.234375 C 4.09375 -4.890625 4.265625 -4.472656 4.265625 -3.984375 Z M 4.265625 -3.984375 "/></g></g><g style="fill:#292929;fill-opacity:1;"><g transform="translate(199.661292, 7.723562)"><path style="stroke:none" d="M 4.015625 0 L 0.625 0 L 0.625 -5.703125 L 4.015625 -5.703125 L 4.015625 -5.15625 L 1.21875 -5.15625 L 1.21875 -3.125 L 3.9375 -3.125 L 3.9375 -2.578125 L 1.21875 -2.578125 L 1.21875 -0.546875 L 4.015625 -0.546875 Z M 4.015625 0 "/></g></g><g style="fill:#292929;fill-opacity:1;"><g transform="translate(210.990736, 7.723562)"><path style="stroke:none" d="M 2.21875 -2.6875 C 1.050781 -2.957031 0.46875 -3.457031 0.46875 -4.1875 C 0.46875 -4.726562 0.65625 -5.128906 1.03125 -5.390625 C 1.40625 -5.660156 1.84375 -5.796875 2.34375 -5.796875 C 3.457031 -5.796875 4.117188 -5.378906 4.328125 -4.546875 L 3.6875 -4.546875 C 3.582031 -5.035156 3.132812 -5.28125 2.34375 -5.28125 C 1.800781 -5.28125 1.421875 -5.117188 1.203125 -4.796875 C 1.117188 -4.671875 1.078125 -4.519531 1.078125 -4.34375 C 1.078125 -3.988281 1.265625 -3.71875 1.640625 -3.53125 C 1.816406 -3.425781 2.195312 -3.300781 2.78125 -3.15625 C 3.363281 -3 3.785156 -2.832031 4.046875 -2.65625 C 4.410156 -2.394531 4.59375 -2.03125 4.59375 -1.5625 C 4.59375 -0.988281 4.367188 -0.554688 3.921875 -0.265625 C 3.535156 -0.015625 3.066406 0.109375 2.515625 0.109375 C 1.242188 0.109375 0.507812 -0.367188 0.3125 -1.328125 L 1 -1.328125 C 1.113281 -0.722656 1.617188 -0.421875 2.515625 -0.421875 C 3.148438 -0.421875 3.59375 -0.597656 3.84375 -0.953125 C 3.945312 -1.097656 4 -1.289062 4 -1.53125 C 4 -1.757812 3.90625 -1.953125 3.71875 -2.109375 C 3.457031 -2.316406 2.957031 -2.507812 2.21875 -2.6875 Z M 2.21875 -2.6875 "/></g></g><g style="fill:#292929;fill-opacity:1;"><g transform="translate(222.488058, 7.723562)"><path style="stroke:none" d="M 4.015625 0 L 0.625 0 L 0.625 -5.703125 L 4.015625 -5.703125 L 4.015625 -5.15625 L 1.21875 -5.15625 L 1.21875 -3.125 L 3.9375 -3.125 L 3.9375 -2.578125 L 1.21875 -2.578125 L 1.21875 -0.546875 L 4.015625 -0.546875 Z M 4.015625 0 "/></g></g><g style="fill:#292929;fill-opacity:1;"><g transform="translate(233.817502, 7.723562)"><path style="stroke:none" d="M 1.546875 -2.09375 L 3.625 -2.09375 L 2.59375 -4.71875 Z M 5.09375 0 L 4.453125 0 L 3.84375 -1.546875 L 1.328125 -1.546875 L 0.71875 0 L 0.078125 0 L 2.59375 -6.09375 Z M 5.09375 0 "/></g></g><g style="fill:#292929;fill-opacity:1;"><g transform="translate(245.675682, 7.723562)"><path style="stroke:none" d="M 4.75 -1.890625 C 4.75 -1.273438 4.550781 -0.785156 4.15625 -0.421875 C 3.769531 -0.0859375 3.265625 0.078125 2.640625 0.078125 C 1.992188 0.078125 1.484375 -0.0859375 1.109375 -0.421875 C 0.703125 -0.785156 0.5 -1.273438 0.5 -1.890625 L 0.5 -5.703125 L 1.09375 -5.703125 L 1.09375 -1.796875 C 1.09375 -1.367188 1.25 -1.039062 1.5625 -0.8125 C 1.832031 -0.613281 2.191406 -0.515625 2.640625 -0.515625 C 3.335938 -0.515625 3.804688 -0.75 4.046875 -1.21875 C 4.128906 -1.375 4.171875 -1.566406 4.171875 -1.796875 L 4.171875 -5.703125 L 4.75 -5.703125 Z M 4.75 -1.890625 "/></g></g></g></g></g></svg>